<svg width="193" height="180" viewBox="0 0 193 180" fill="none" xmlns="http://www.w3.org/2000/svg">
<path d="M51.6278 167.042L0.415057 106.771V91.6654H193V106.771L141.209 167.042H51.6278ZM44.68 23.69C44.68 21.6869 43.8996 19.7658 42.5105 18.3494C41.1214 16.9329 39.2373 16.1372 37.2729 16.1372C35.3084 16.1372 33.4243 16.9329 32.0352 18.3494C30.6461 19.7658 29.8657 21.6869 29.8657 23.69V32.2549L3.24457 37.8138C2.74177 37.8778 2.2572 38.0464 1.82085 38.309C1.38449 38.5717 1.00564 38.9228 0.707726 39.3408C0.409812 39.7587 0.199176 40.2346 0.0888506 40.7388C-0.0214745 41.2431 -0.0291423 41.7651 0.0663227 42.2725C0.161788 42.78 0.358354 43.262 0.643859 43.6889C0.929364 44.1157 1.29774 44.4783 1.72618 44.7542C2.15462 45.03 2.63402 45.2133 3.13472 45.2927C3.63542 45.372 4.14676 45.3458 4.63711 45.2155L29.8657 41.0313V49.5811L3.94084 50.1249C2.9586 50.1249 2.01658 50.5227 1.32203 51.2309C0.627481 51.9392 0.237286 52.8997 0.237286 53.9013C0.237286 54.9028 0.627481 55.8634 1.32203 56.5716C2.01658 57.2798 2.9586 57.6777 3.94084 57.6777L29.8657 58.2215V76.5295H44.68V23.69ZM185.415 46.3484L74.3084 50.3212V31.1673L186.808 14.9438C188.707 14.5363 190.374 13.3847 191.449 11.7369C192.525 10.0891 192.923 8.07667 192.558 6.13268C192.193 4.18869 191.094 2.46847 189.498 1.34215C187.901 0.215828 185.935 -0.226583 184.023 0.110104L74.1899 23.0102C74.0202 21.0885 73.1299 19.3076 71.7044 18.0385C70.279 16.7695 68.4284 16.1101 66.538 16.1977C64.6477 16.2853 62.8633 17.1132 61.5567 18.5089C60.2501 19.9046 59.5219 21.7605 59.5238 23.69V27.1341L52.2056 28.6446V33.9618L59.509 32.7534V50.8348L52.2056 50.9859V57.9496L185.415 61.4541C187.38 61.4541 189.264 60.6583 190.653 59.2419C192.042 57.8255 192.822 55.9044 192.822 53.9013C192.822 51.8981 192.042 49.977 190.653 48.5606C189.264 47.1442 187.38 46.3484 185.415 46.3484ZM133.743 182.299H59.672V191H133.743V182.299Z" fill="#F56606" fill-opacity="0.1"/>
</svg>
