<svg width="144" height="188" viewBox="0 0 144 188" fill="none" xmlns="http://www.w3.org/2000/svg">
<path d="M27.2136 155.371L-41.6578 51.1756L27.2136 155.371ZM-7.22213 103.273L32.821 76.8053L-7.22213 103.273ZM7.53602 125.601L34.2314 107.955L7.53602 125.601ZM-21.9803 80.9456L4.71513 63.3003L-21.9803 80.9456ZM0.518151 173.016L71.7282 125.947C74.458 128.114 77.5189 129.737 80.7352 130.722C83.9515 131.708 87.2598 132.038 90.4703 131.692C93.6807 131.346 96.73 130.332 99.443 128.707C102.156 127.082 104.48 124.879 106.28 122.225C108.08 119.57 109.322 116.516 109.934 113.237C110.546 109.959 110.516 106.521 109.846 103.121C109.177 99.7207 107.88 96.4253 106.03 93.424C104.181 90.4226 101.815 87.7743 99.0696 85.6311C109.436 74.8223 111.661 51.0007 99.5595 32.6921C87.4578 14.3835 64.6695 7.09549 50.6629 12.3968C48.831 5.62361 44.5557 -0.379362 38.7777 -4.29152C32.9996 -8.20368 26.1921 -9.70455 19.8526 -8.46396C13.5131 -7.22337 8.16098 -3.34295 4.97365 2.32366C1.78632 7.99028 1.02486 14.9789 2.85678 21.7521L-68.3532 68.8208L0.518151 173.016Z" stroke="#F56606" stroke-opacity="0.1" stroke-width="10"/>
</svg>
