<svg width="18" height="24" viewBox="0 0 18 24" fill="none" xmlns="http://www.w3.org/2000/svg">
<path d="M8.75758 5.4C9.5871 5.4 10.3826 5.71607 10.9692 6.27868C11.5558 6.84129 11.8853 7.60435 11.8853 8.4C11.8853 8.79397 11.8044 9.18407 11.6472 9.54805C11.49 9.91203 11.2596 10.2427 10.9692 10.5213C10.6788 10.7999 10.334 11.0209 9.9545 11.1716C9.57503 11.3224 9.16831 11.4 8.75758 11.4C7.92806 11.4 7.13251 11.0839 6.54595 10.5213C5.9594 9.95871 5.62987 9.19565 5.62987 8.4C5.62987 7.60435 5.9594 6.84129 6.54595 6.27868C7.13251 5.71607 7.92806 5.4 8.75758 5.4ZM8.75758 0C11.0802 0 13.3078 0.884997 14.9501 2.4603C16.5925 4.03561 17.5152 6.17218 17.5152 8.4C17.5152 14.7 8.75758 24 8.75758 24C8.75758 24 0 14.7 0 8.4C0 6.17218 0.922671 4.03561 2.56503 2.4603C4.2074 0.884997 6.43492 0 8.75758 0ZM8.75758 2.4C7.09854 2.4 5.50745 3.03214 4.33433 4.15736C3.16121 5.28258 2.50216 6.8087 2.50216 8.4C2.50216 9.6 2.50216 12 8.75758 20.052C15.013 12 15.013 9.6 15.013 8.4C15.013 6.8087 14.3539 5.28258 13.1808 4.15736C12.0077 3.03214 10.4166 2.4 8.75758 2.4Z" fill="#686B6F"/>
</svg>
