<svg width="162" height="60" viewBox="0 0 162 60" fill="none" xmlns="http://www.w3.org/2000/svg">
<path d="M124.419 27.9963H125.348C126.005 27.9981 126.656 27.8695 127.263 27.618C127.87 27.3666 128.421 26.9972 128.884 26.5312L134 21.375L132.611 19.975L127.388 25.1987L126.302 24.1131L131.526 18.8888L130.088 17.4944L124.884 22.6981L123.801 21.6125L129.025 16.3881L127.625 15L122.469 20.1156C122.003 20.579 121.633 21.1302 121.382 21.7373C121.13 22.3444 121.002 22.9954 121.004 23.6525V24.5813L118.308 27.2769L106 15C103.233 18.4294 104.867 24.7319 107.983 27.8481L113.326 33.1919C114.986 34.8512 115.315 34.9994 117.198 34.2419C117.603 34.0788 117.751 34.0969 118.129 34.4744L118.941 35.2325C119.124 35.42 119.129 35.475 119.129 35.8337V36.18C119.129 37.4975 119.971 38.255 120.526 38.82L127 45L131.5 40.5L121.723 30.6919L124.419 27.9963Z" fill="#FAA881"/>
<path d="M117.211 36.1619C115.347 36.5438 114.204 36.8956 112.018 34.71C111.983 34.675 111.947 34.6413 111.912 34.6063L110.693 33.3875L104 40L109 45L118 36L117.211 36.1619Z" fill="#FAA881"/>
<path d="M148.572 19.88V28.04H158.172V31.76H148.572V40.28H159.372V44H144.012V16.16H159.372V19.88H148.572Z" fill="black"/>
<path d="M1.51125 30.04C1.51125 27.32 2.13792 24.88 3.39125 22.72C4.67125 20.56 6.39125 18.88 8.55125 17.68C10.7379 16.4533 13.1246 15.84 15.7113 15.84C18.6713 15.84 21.2979 16.5733 23.5913 18.04C25.9113 19.48 27.5913 21.5333 28.6313 24.2H23.1513C22.4313 22.7333 21.4313 21.64 20.1513 20.92C18.8713 20.2 17.3913 19.84 15.7113 19.84C13.8713 19.84 12.2313 20.2533 10.7913 21.08C9.35125 21.9067 8.21792 23.0933 7.39125 24.64C6.59125 26.1867 6.19125 27.9867 6.19125 30.04C6.19125 32.0933 6.59125 33.8933 7.39125 35.44C8.21792 36.9867 9.35125 38.1867 10.7913 39.04C12.2313 39.8667 13.8713 40.28 15.7113 40.28C17.3913 40.28 18.8713 39.92 20.1513 39.2C21.4313 38.48 22.4313 37.3867 23.1513 35.92H28.6313C27.5913 38.5867 25.9113 40.64 23.5913 42.08C21.2979 43.52 18.6713 44.24 15.7113 44.24C13.0979 44.24 10.7113 43.64 8.55125 42.44C6.39125 41.2133 4.67125 39.52 3.39125 37.36C2.13792 35.2 1.51125 32.76 1.51125 30.04Z" fill="black"/>
<path d="M54.8033 44L48.4033 32.88H44.9233V44H40.3633V16.2H49.9633C52.0966 16.2 53.8966 16.5733 55.3633 17.32C56.8566 18.0667 57.9633 19.0667 58.6833 20.32C59.4299 21.5733 59.8033 22.9733 59.8033 24.52C59.8033 26.3333 59.2699 27.9867 58.2033 29.48C57.1633 30.9467 55.5499 31.9467 53.3633 32.48L60.2433 44H54.8033ZM44.9233 29.24H49.9633C51.6699 29.24 52.9499 28.8133 53.8033 27.96C54.6833 27.1067 55.1233 25.96 55.1233 24.52C55.1233 23.08 54.6966 21.96 53.8433 21.16C52.9899 20.3333 51.6966 19.92 49.9633 19.92H44.9233V29.24Z" fill="black"/>
<path d="M88.8147 38.32H77.1747L75.1747 44H70.4147L80.3747 16.16H85.6547L95.6147 44H90.8147L88.8147 38.32ZM87.5347 34.6L83.0147 21.68L78.4547 34.6H87.5347Z" fill="black"/>
</svg>
