<svg width="44" height="40" viewBox="0 0 44 40" fill="none" xmlns="http://www.w3.org/2000/svg">
<path d="M26.653 26.6L22 23.795L17.347 26.6L18.579 21.309L14.476 17.756L19.888 17.294L22 12.3L24.112 17.283L29.524 17.745L25.421 21.298L26.653 26.6ZM22 9C15.917 9 11 13.95 11 20C11 22.9174 12.1589 25.7153 14.2218 27.7782C15.2433 28.7996 16.4559 29.6099 17.7905 30.1627C19.1251 30.7155 20.5555 31 22 31C24.9174 31 27.7153 29.8411 29.7782 27.7782C31.8411 25.7153 33 22.9174 33 20C33 18.5555 32.7155 17.1251 32.1627 15.7905C31.6099 14.4559 30.7996 13.2433 29.7782 12.2218C28.7567 11.2004 27.5441 10.3901 26.2095 9.83733C24.8749 9.28452 23.4445 9 22 9Z" fill="#F56606"/>
</svg>
